<svg width="40" height="39" viewBox="0 0 40 39" fill="none" xmlns="http://www.w3.org/2000/svg">
<rect width="40" height="39" fill="black"/>
<path d="M30.7008 27.0204L26.4165 22.7368C26.2231 22.5435 25.961 22.4361 25.686 22.4361H24.9855C26.1716 20.9194 26.8763 19.0118 26.8763 16.9366C26.8763 12 22.8756 8 17.9382 8C13.0007 8 9 12 9 16.9366C9 21.8733 13.0007 25.8733 17.9382 25.8733C20.0137 25.8733 21.9216 25.1686 23.4386 23.9828V24.6831C23.4386 24.9581 23.546 25.2202 23.7394 25.4135L28.0237 29.6971C28.4276 30.101 29.0808 30.101 29.4804 29.6971L30.6965 28.4812C31.1004 28.0773 31.1004 27.4243 30.7008 27.0204ZM17.9382 22.4361C14.9 22.4361 12.4378 19.9785 12.4378 16.9366C12.4378 13.899 14.8957 11.4372 17.9382 11.4372C20.9763 11.4372 23.4386 13.8947 23.4386 16.9366C23.4386 19.9742 20.9806 22.4361 17.9382 22.4361Z" fill="white"/>
</svg>
